<?xml version="1.0" standalone="no"?>
<!DOCTYPE svg PUBLIC "-//W3C//DTD SVG 20010904//EN"
 "http://www.w3.org/TR/2001/REC-SVG-20010904/DTD/svg10.dtd">
<svg version="1.0" xmlns="http://www.w3.org/2000/svg"
 width="527.000000pt" height="474.000000pt" viewBox="0 0 527.000000 474.000000"
 preserveAspectRatio="xMidYMid meet">

<g transform="translate(0.000000,474.000000) scale(0.100000,-0.100000)"
fill="#000000" stroke="none">
<path d="M2430 4054 c-14 -2 -65 -12 -115 -20 -519 -91 -975 -481 -1155 -989
-29 -85 -70 -235 -70 -262 0 -10 98 -13 459 -13 l459 0 38 75 c89 177 244 302
434 351 98 25 292 16 382 -18 161 -60 299 -180 377 -329 53 -100 66 -91 18 13
-93 199 -281 354 -492 404 -74 17 -222 23 -290 11 -34 -6 -36 -5 -15 4 14 6
75 13 136 16 146 7 249 -13 369 -72 163 -80 280 -196 361 -359 49 -99 60 -115
50 -71 -36 152 -183 347 -335 444 -155 98 -301 137 -491 129 -89 -4 -105 -3
-70 5 64 13 254 12 330 -2 290 -56 538 -282 644 -585 4 -10 9 -16 12 -13 9 8
-44 153 -78 215 -159 286 -450 462 -773 466 -55 0 -125 -2 -155 -6 -44 -6 -49
-5 -25 3 48 17 284 23 361 10 92 -16 205 -55 284 -99 212 -116 386 -325 450
-539 7 -24 17 -43 21 -43 5 0 7 6 4 13 -2 6 -11 37 -21 67 -107 347 -415 612
-779 670 -79 13 -203 16 -285 7 -48 -6 -51 -5 -25 5 50 18 329 16 410 -4 367
-90 635 -332 756 -683 30 -87 39 -78 13 13 -90 311 -341 577 -657 696 -127 48
-210 61 -385 61 -166 0 -169 8 -7 21 225 16 481 -56 688 -193 92 -61 229 -198
289 -288 64 -97 117 -205 149 -305 15 -47 28 -75 28 -63 1 33 -55 196 -95 276
-112 224 -294 407 -514 517 -183 91 -318 122 -540 123 -100 1 -141 3 -115 8
22 4 99 8 172 8 383 2 726 -169 959 -479 92 -122 178 -305 209 -444 3 -15 9
-26 12 -23 10 10 -28 148 -67 244 -143 349 -442 620 -800 724 -133 38 -268 53
-424 47 -103 -4 -122 -3 -91 5 66 17 358 13 445 -7 134 -30 233 -64 333 -115
342 -174 578 -474 677 -860 6 -23 13 -41 16 -39 6 7 -43 195 -68 258 -65 166
-154 304 -281 436 -150 157 -304 257 -502 329 -171 62 -265 78 -470 79 -115 0
-167 3 -145 8 66 16 329 12 430 -6 179 -32 374 -110 528 -213 103 -68 262
-219 338 -320 98 -130 185 -315 235 -498 17 -63 18 -65 13 -21 -9 79 -61 233
-118 351 -161 333 -456 593 -811 713 -177 60 -229 67 -475 67 -209 0 -220 1
-150 12 163 26 421 11 580 -33 523 -146 908 -542 1045 -1074 27 -107 33 -100
10 12 -91 433 -389 815 -793 1018 -217 109 -387 150 -642 155 -96 2 -186 2
-200 -1z m-87 -101 c-7 -2 -19 -2 -25 0 -7 3 -2 5 12 5 14 0 19 -2 13 -5z m50
-80 c-7 -2 -21 -2 -30 0 -10 3 -4 5 12 5 17 0 24 -2 18 -5z m-56 -9 c-3 -3
-12 -4 -19 -1 -8 3 -5 6 6 6 11 1 17 -2 13 -5z m46 -81 c-7 -2 -19 -2 -25 0
-7 3 -2 5 12 5 14 0 19 -2 13 -5z m30 -80 c-7 -2 -19 -2 -25 0 -7 3 -2 5 12 5
14 0 19 -2 13 -5z m-6 -89 c-3 -3 -12 -4 -19 -1 -8 3 -5 6 6 6 11 1 17 -2 13
-5z"/>
<path d="M1078 2654 c-5 -4 -8 -209 -8 -456 l0 -448 120 0 119 0 3 133 3 132
53 1 c30 1 59 -4 65 -11 7 -6 43 -67 81 -133 l70 -122 133 0 c104 0 133 3 133
13 0 8 -40 79 -89 158 l-89 144 44 48 c63 70 87 142 82 242 -7 133 -64 221
-177 274 -55 25 -62 26 -296 29 -132 2 -243 0 -247 -4z m473 -106 c53 -18 93
-53 118 -103 19 -39 23 -58 19 -120 -3 -62 -8 -80 -33 -116 -25 -36 -81 -76
-126 -91 -11 -4 7 -38 100 -186 29 -46 51 -88 49 -94 -2 -6 -42 53 -88 131
l-85 141 -152 0 -153 0 0 -135 c0 -83 -4 -135 -10 -135 -6 0 -10 127 -10 360
l0 360 169 0 c102 0 181 -5 202 -12z"/>
<path d="M1200 2340 l0 -210 163 0 c176 0 217 10 264 61 101 110 49 312 -90
347 -25 7 -111 12 -191 12 l-146 0 0 -210z m342 82 c19 -18 23 -34 23 -81 0
-49 -4 -64 -24 -85 -23 -25 -30 -26 -128 -26 l-103 0 0 111 0 111 105 -4 c93
-3 107 -6 127 -26z"/>
<path d="M2170 2658 c0 -1 -1 -207 -3 -456 l-2 -452 118 0 117 0 0 114 0 114
128 4 c102 3 136 8 173 25 66 30 124 86 156 151 25 51 28 67 28 162 0 95 -3
111 -28 162 -32 65 -90 121 -156 151 -42 20 -67 22 -288 25 -134 2 -243 2
-243 0z m486 -117 c139 -63 171 -284 58 -397 -24 -25 -58 -47 -80 -53 -22 -6
-108 -11 -191 -11 l-153 0 0 -119 c0 -69 -4 -122 -10 -126 -7 -4 -10 118 -10
359 l0 366 173 0 c146 0 178 -3 213 -19z"/>
<path d="M2292 2323 l3 -228 130 -3 c71 -1 152 2 179 8 97 21 155 93 164 205
8 107 -55 209 -145 234 -21 6 -104 11 -186 11 l-147 0 2 -227z m331 105 c60
-60 43 -201 -29 -228 -14 -6 -63 -10 -110 -10 l-84 0 0 131 0 131 103 -4 c80
-2 107 -7 120 -20z"/>
<path d="M3207 2653 c-4 -3 -7 -208 -7 -455 l0 -448 120 0 120 0 0 195 c0 112
4 195 9 195 5 0 49 -43 98 -95 48 -52 93 -95 100 -95 6 0 57 46 112 103 l101
102 0 -202 0 -203 115 0 115 0 0 455 0 455 -38 0 c-35 0 -45 -7 -108 -73 -112
-117 -268 -288 -277 -303 -4 -8 -12 -14 -16 -14 -5 0 -76 75 -157 166 -82 91
-161 179 -175 195 -21 23 -35 29 -66 29 -22 0 -43 -3 -46 -7z m249 -340 c65
-71 135 -145 155 -166 l36 -38 158 165 c87 91 162 166 167 166 4 0 7 -136 6
-302 l-3 -303 -5 293 -5 292 -159 -166 -160 -166 -45 48 c-24 27 -94 102 -155
168 l-111 118 -5 -293 -5 -294 -3 303 c-1 166 2 302 7 302 4 0 61 -57 127
-127z"/>
<path d="M1322 1438 c3 -154 5 -173 20 -176 15 -3 18 7 20 70 2 40 7 73 13 73
5 0 15 -28 21 -63 12 -68 27 -93 44 -76 8 8 7 31 -3 76 -11 55 -11 69 0 84 8
10 13 45 13 85 0 84 -12 99 -81 99 l-49 0 2 -172z m83 72 c0 -48 -2 -55 -20
-55 -16 0 -21 8 -23 44 -4 54 3 73 25 69 15 -3 18 -14 18 -58z"/>
<path d="M1732 1438 l3 -173 50 0 c39 0 50 4 53 17 2 12 -5 17 -30 20 -33 3
-33 3 -33 58 0 53 1 55 28 58 38 5 33 36 -6 40 -27 3 -28 5 -25 55 3 51 4 52
36 55 24 2 32 8 32 23 0 16 -7 19 -55 19 l-55 0 2 -172z"/>
<path d="M2120 1590 c-6 -12 -9 -75 -8 -162 l3 -142 27 -15 c20 -12 34 -13 55
-5 25 8 28 15 31 57 3 42 1 47 -17 47 -17 0 -21 -6 -21 -29 0 -32 -18 -51 -29
-32 -4 6 -6 22 -5 34 1 12 3 68 3 125 1 82 4 102 15 102 9 0 16 -12 18 -32 2
-22 9 -34 21 -36 14 -3 17 4 17 40 0 54 -13 68 -62 68 -27 0 -40 -5 -48 -20z"/>
<path d="M2522 1598 c-8 -8 -12 -59 -12 -165 0 -140 2 -153 19 -163 26 -14 72
-10 94 8 15 13 17 34 17 154 0 77 -5 148 -10 159 -8 14 -21 19 -53 19 -24 0
-48 -5 -55 -12z m68 -35 c4 -64 1 -255 -3 -260 -4 -3 -13 -3 -22 0 -12 5 -15
28 -15 137 0 123 1 130 20 130 11 0 20 -3 20 -7z"/>
<path d="M2920 1434 c0 -162 1 -175 18 -172 14 3 18 16 20 76 2 39 7 72 12 72
9 0 30 -85 30 -121 0 -20 22 -35 38 -25 5 3 4 36 -4 78 -7 44 -9 77 -3 83 14
14 11 159 -3 173 -7 7 -34 12 -60 12 l-48 0 0 -176z m80 76 c0 -53 -2 -60 -20
-60 -18 0 -20 7 -20 60 0 53 2 60 20 60 18 0 20 -7 20 -60z"/>
<path d="M3330 1435 l0 -175 45 0 c78 0 85 15 85 178 0 162 -5 172 -83 172
l-47 0 0 -175z m80 0 c0 -128 -1 -135 -20 -135 -19 0 -20 7 -20 135 0 128 1
135 20 135 19 0 20 -7 20 -135z"/>
<path d="M3746 1594 c-11 -11 -16 -34 -16 -75 0 -76 12 -99 50 -99 30 0 30 0
30 -61 0 -52 -2 -60 -17 -57 -11 2 -19 14 -21 31 -2 19 -9 27 -23 27 -15 0
-19 -7 -19 -33 0 -61 67 -90 110 -47 15 15 20 33 20 78 0 67 -19 102 -56 102
-23 0 -24 3 -24 55 0 42 3 55 15 55 10 0 15 -10 15 -30 0 -23 4 -30 20 -30 16
0 20 7 20 38 0 21 -5 43 -12 50 -17 17 -74 15 -92 -4z"/>
</g>
</svg>
