<?xml version="1.0" encoding="UTF-8"?><svg id="Layer_1" xmlns="http://www.w3.org/2000/svg" width="107.5" height="118" viewBox="0 0 107.5 118"><defs><style>.cls-1{fill:#4d4d4d;}.cls-1,.cls-2,.cls-3{stroke-width:0px;}.cls-2{fill:#fd8c8a;}.cls-4{stroke:#fff;stroke-miterlimit:10;}.cls-4,.cls-3{fill:#000;}</style></defs><circle class="cls-1" cx="54.32" cy="42.69" r="41.62"/><path class="cls-2" d="M60.77,14.77c1.08-.89-.6-1.41-.35-2,.4-.93,1.51-.9,1.65-2.35.1-.98.74-2.12,1.65-2.35.75-.19,1.54.28,2.17.65.08.05.45.31,1.17.82,1.11.79,1.12.8,1.17.82.88.46,1.18.19,2.17.65.45.21.85.39,1.17.82.39.51.61,1.32.35,2-.31.82-1.21,1.13-1.82,1.35-1.94.68-1,.18-3,.53-.03,0-1.01.18-1.82,1.35-.76,1.09-.73,1.09-.82,1.17-.99.96-2.79.57-3,.53-.18-.04-2.19-.5-2.35-1.65-.13-.9.93-1.76,1.65-2.35Z"/><path class="cls-2" d="M27.15,15.46c-.67.61-3.95,3.56-3.24,5.2.75,1.72,4.88-.36,8.76,2.29,2.01,1.37,2.1,2.74,4.56,3.71.59.23,2.33.82,4.35.37.49-.11,2.01-.52,2.96-1.85.24-.34.69-1.08.83-3.61.18-3.34,3.77-3.18,4.19-4.65.56-1.95-2.43-2.14-.77-4.69.56-.86,2.6-4.01,1.39-6.01-.79-1.3-2.7-1.7-4.07-1.57-1.76.16-1.35,1.06-5.83,1.44-1.42.12-2.27.5-2.84.97-.73.6-.73,1.03-1.61,2.06-.63.74-1.23,1.2-2.13,1.84-3.59,2.57-4.89,3.02-6.55,4.51Z"/><path class="cls-2" d="M88.95,21.98c2.25.89,3.09,3.48,4.67,8.62,1.08,3.53,1.17,5.27,1.19,7.1.06,6.56-.3,19.29-5.12,5.49-1.37-3.94-3.62-2.73-3.86-4.32-.4-2.64-3.4-.56-4.2-1.68-1-1.4.52-2.58-1.68-4.2-1.3-.96-.53-3.35-.36-4.95.15-1.43.17-3.33,2.04-5.14,1.1-1.06.55-3.02,1.68-3.36.13-.04,3.99,1.79,5.65,2.45Z"/><path class="cls-2" d="M67.17,20.64c1.54.43,2.08.45,2.34.94.29.54-.14.94.22,1.55.26.45.83.78,1.37.76.72-.04.74-.71,1.73-1.19.97-.47,1.43-.06,2.12-.61.06-.05.73-.6.76-1.37.03-.8-.65-1.08-1.58-2.3-1.29-1.7-1.12-2.64-1.98-2.88-.58-.16-.75.24-2.12.61-1.71.46-2.08,0-3.09.43-1.42.61-2.48,2.31-2.09,3.13.15.33.88.53,2.34.94Z"/><path class="cls-2" d="M29.78,31.19c-2.84,0-4.13-1.49-6.8-.76-2.33.64-4.39,1.21-6.04,3.02-.38.41-2.68,4.96-2.27,8.31.76,6.04,3.78,6.04,3.78,12.09,0,4.52,4.94,5.9,9.82,9.82,1.42,1.14,7.92,6.36,9.07,5.29.83-.78-2.31-3.78-3.02-9.82-.26-2.16-.57-4.84.76-7.55,1.23-2.51,2.6-2.48,3.78-5.29.4-.95,1.41-3.37.76-6.04-.66-2.68-.88-.92-.76-3.02.12-2.08.27-3.27-.76-3.78-3.02-1.51-4.36-2.27-8.31-2.27Z"/><path class="cls-2" d="M68.78,41.18c-2.84-1.54-2.31-2.19-4.84-3.27-1.2-.51-4.46-1.9-7.64-.62-1,.4-1.69.95-2.67,1.72-1.51,1.19-2.55,2-2.68,3.23-.13,1.2.66,2.18,1.14,2.79,1.48,1.85,2.79,1.39,4.5,3.04.8.77,1.3,1.87,2.29,4.07,1.1,2.42,1.03,2.92,1.82,4.76,1.31,3.02,2.38,5.48,4.13,5.81,1.7.33,2.27-1.68,6.63-4.59,3.56-2.38,4.79-2.12,6.39-4.25.52-.69,2.16-2.88,1.65-5.43-.4-1.99-1.9-3.18-2.87-3.95-2.65-2.11-4.1-1.26-7.85-3.29Z"/><circle class="cls-3" cx="53.24" cy="71" r="17.02"/><circle class="cls-3" cx="19.4" cy="71.63" r="11.77"/><circle class="cls-3" cx="86.66" cy="71.63" r="11.77"/><path class="cls-3" d="M7.95,82.92c1.16-.68,2.56-.59,3.63.25,1.51,1.18,3.93,2.61,7.07,2.8,4.14.25,7.13-2.05,8.9-3.14,1.52-.93,1.91-.94,2.92-.66.33.09.64.2.93.31,4.96,2.03,7.23,8.83,8.17,12.92.42,1.82-.36,3.71-1.85,4.55s-3.43,1.8-5.61,2.57c-9.63,3.41-17.96,1.42-22.43.29-1.85-.47-4.23-1.19-6.98-2.36-1.56-.66-2.5-2.44-2.27-4.3.38-3.09,1.5-7.69,4.76-11.06.92-.95,1.87-1.65,2.75-2.17Z"/><path class="cls-3" d="M75.27,82.83c1.16-.68,2.56-.59,3.63.25,1.51,1.18,3.93,2.61,7.07,2.8,4.14.25,7.13-2.05,8.9-3.14,1.52-.93,1.91-.94,2.92-.66.33.09.64.2.93.31,4.96,2.03,7.23,8.83,8.17,12.92.42,1.82-.36,3.71-1.85,4.55s-3.43,1.8-5.61,2.57c-9.63,3.41-17.96,1.42-22.43.29-1.85-.47-4.23-1.19-6.98-2.36-1.56-.66-2.5-2.44-2.27-4.3.38-3.09,1.5-7.69,4.76-11.06.92-.95,1.87-1.65,2.75-2.17Z"/><path class="cls-4" d="M37.05,85.72c1.67-.98,3.71-.85,5.26.36,2.19,1.71,5.69,3.77,10.24,4.05,5.99.36,10.32-2.97,12.88-4.54,2.19-1.35,2.76-1.36,4.22-.96.48.13.93.28,1.35.45,7.17,2.94,10.46,12.78,11.82,18.7.61,2.63-.52,5.37-2.67,6.59s-4.96,2.6-8.12,3.72c-13.94,4.94-26,2.06-32.46.42-2.68-.68-6.13-1.73-10.1-3.41-2.25-.96-3.62-3.53-3.29-6.22.55-4.48,2.17-11.13,6.89-16.01,1.33-1.38,2.7-2.39,3.98-3.15Z"/></svg>