<?xml version="1.0" encoding="UTF-8"?><svg id="Layer_1" xmlns="http://www.w3.org/2000/svg" width="108.5" height="91" viewBox="0 0 108.5 91"><defs><style>.cls-1{fill:#000;stroke-width:3px;}.cls-1,.cls-2{stroke:#000;stroke-miterlimit:10;}.cls-2{fill:#fff;stroke-width:2px;}.cls-3{fill:#4d4d4d;}.cls-3,.cls-4{stroke-width:0px;}.cls-4{fill:#fd8c8a;}</style></defs><circle class="cls-1" cx="54.27" cy="45.71" r="43.2"/><circle class="cls-2" cx="54.31" cy="45.98" r="21.19"/><rect class="cls-3" x=".55" y="34.04" width="107.47" height="23.28" rx="4.48" ry="4.48" transform="translate(11.75 -11.1) rotate(13.09)"/><path class="cls-4" d="M56.62,38.65l.39,4.39c.03.31.25.57.56.64l4.32,1c.68.16.76,1.1.11,1.37l-4.07,1.7c-.29.12-.47.42-.44.73l.39,4.37c.06.7-.8,1.07-1.26.54l-2.92-3.34c-.2-.23-.53-.31-.82-.19l-4.1,1.71c-.64.27-1.26-.44-.9-1.04l2.28-3.75c.16-.27.13-.61-.07-.85l-2.9-3.32c-.46-.53.02-1.34.71-1.18l4.32,1c.3.07.62-.06.78-.33l2.29-3.77c.36-.6,1.27-.38,1.34.31Z"/><path class="cls-4" d="M15.3,29.05l.39,4.39c.03.31.25.57.56.64l4.32,1c.68.16.76,1.1.11,1.37l-4.07,1.7c-.29.12-.47.42-.44.73l.39,4.37c.06.7-.8,1.07-1.26.54l-2.92-3.34c-.2-.23-.53-.31-.82-.19l-4.1,1.71c-.64.27-1.26-.44-.9-1.04l2.28-3.75c.16-.27.13-.61-.07-.85l-2.9-3.32c-.46-.53.02-1.34.71-1.18l4.32,1c.3.07.62-.06.78-.33l2.29-3.77c.36-.6,1.27-.38,1.34.31Z"/><path class="cls-4" d="M97.3,48.11l.39,4.39c.03.31.25.57.56.64l4.32,1c.68.16.76,1.1.11,1.37l-4.07,1.7c-.29.12-.47.42-.44.73l.39,4.37c.06.7-.8,1.07-1.26.54l-2.92-3.34c-.2-.23-.53-.31-.82-.19l-4.1,1.71c-.64.27-1.26-.44-.9-1.04l2.28-3.75c.16-.27.13-.61-.07-.85l-2.9-3.32c-.46-.53.02-1.34.71-1.18l4.32,1c.3.07.62-.06.78-.33l2.29-3.77c.36-.6,1.27-.38,1.34.31Z"/><path class="cls-4" d="M36.24,33.91l.39,4.39c.03.31.25.57.56.64l4.32,1c.68.16.76,1.1.11,1.37l-4.07,1.7c-.29.12-.47.42-.44.73l.39,4.37c.06.7-.8,1.07-1.26.54l-2.92-3.34c-.2-.23-.53-.31-.82-.19l-4.1,1.71c-.64.27-1.26-.44-.9-1.04l2.28-3.75c.16-.27.13-.61-.07-.85l-2.9-3.32c-.46-.53.02-1.34.71-1.18l4.32,1c.3.07.62-.06.78-.33l2.29-3.77c.36-.6,1.27-.38,1.34.31Z"/><path class="cls-4" d="M77.24,43.44l.39,4.39c.03.31.25.57.56.64l4.32,1c.68.16.76,1.1.11,1.37l-4.07,1.7c-.29.12-.47.42-.44.73l.39,4.37c.06.7-.8,1.07-1.26.54l-2.92-3.34c-.2-.23-.53-.31-.82-.19l-4.1,1.71c-.64.27-1.26-.44-.9-1.04l2.28-3.75c.16-.27.13-.61-.07-.85l-2.9-3.32c-.46-.53.02-1.34.71-1.18l4.32,1c.3.07.62-.06.78-.33l2.29-3.77c.36-.6,1.27-.38,1.34.31Z"/></svg>