<?xml version="1.0" encoding="UTF-8"?><svg id="Layer_1" xmlns="http://www.w3.org/2000/svg" width="109.5" height="84.5" viewBox="0 0 109.5 84.5"><defs><style>.cls-1{fill:#4d4d4d;}.cls-1,.cls-2,.cls-3,.cls-4,.cls-5,.cls-6{stroke-width:0px;}.cls-2{fill:#fd8c8a;}.cls-3{fill:#999;}.cls-4{fill:#000;}.cls-5{fill:#f2f2f2;}.cls-6{fill:#fff;}</style></defs><ellipse class="cls-4" cx="54.9" cy="51.88" rx="55" ry="28.58" transform="translate(-12.19 17.17) rotate(-16.02)"/><path class="cls-5" d="M77.16,24.91c5-1.38,13.04,2.22,13.04,2.22,2.9,1.3,9.56,4.28,9.11,6-.13.51-.85.8-1.71.97-.94.19-1.92-.02-2.74-.51-2.75-1.61-5.14-2.4-6.89-2.84-1.65-.41-6.53-1.44-10.57-3.3-.67-.31-1.92-.92-1.85-1.54.06-.57,1.2-.89,1.62-1.01Z"/><path class="cls-5" d="M88.44,35.3c-1.64,1.83-6.55.05-6.55.05-1.77-.64-5.84-2.12-6.32-3.58-.14-.43.06-.77.37-1.03.34-.28.84-.25,1.39.02,1.83.91,3.18,1.22,4.11,1.32.88.1,3.41.24,5.9,1.18.41.16,1.19.47,1.41.99.2.47-.18.89-.31,1.04Z"/><path class="cls-5" d="M38.38,77.49c-5.9,1.5-17.84-3.56-17.84-3.56-3.37-1.6-10.21-4.92-9.64-6.92.17-.59.12-1.27,1.13-1.45,1.11-.19,2.85.36,3.91.71,3.65,1.21,5.64,2.73,7.3,3.45,2.47,1.07,7.36,3.34,12.32,4.14.85.14,7.58.85,6.37,2.45-.41.54-3.07,1.04-3.56,1.17Z"/><path class="cls-5" d="M27.99,67.2c3.03,3.12,12.19,4.51,12.19,4.51,2.65.29,8.05.83,8.45-.61.12-.42.4-.81-.15-1.3-.6-.53-1.87-.85-2.65-1.03-2.67-.63-4.45-.45-5.73-.63-1.91-.27-5.73-.72-9.05-2.09-.57-.24-4.93-2.32-4.79-.9.05.48,1.48,1.78,1.73,2.04Z"/><ellipse class="cls-2" cx="54.51" cy="48.76" rx="19.15" ry="9.95" transform="translate(-11.34 16.94) rotate(-16.02)"/><ellipse class="cls-6" cx="53.88" cy="47.64" rx="1.52" ry=".79" transform="translate(-11.06 16.72) rotate(-16.02)"/><path class="cls-1" d="M54.68,5.9c-4.34,2.71-5.84,3.77-6.88,5.15-.75.99-1.69,2.47-2.07,4.46-.22,1.21.17,2.43,1.03,3.78,1.14,1.8,2.89,2.34,3.78,2.41,3.76.3,6.56-2.16,7.22-2.74.6-.52,2.14-1.99,3.79-6.18,1.36-3.46,2.62-9.59.7-10.65-.96-.53-2.24.45-7.56,3.77Z"/><path class="cls-1" d="M32,11.21c5.25.61,7.13.93,8.7,1.76,1.14.6,2.68,1.55,3.91,3.25.74,1.03.92,2.35.72,3.98-.27,2.19-1.66,3.46-2.46,3.92-3.37,1.95-7.08.89-7.95.64-.79-.23-2.87-.91-6.27-4.09-2.81-2.63-6.7-7.79-5.37-9.63.66-.92,2.29-.58,8.73.17Z"/><path class="cls-3" d="M47.29,18.2c1.03.81,5.1-2.92,5.64-3.42,2.39-2.19,4.24-4.61,4.06-4.78-.15-.15-1.4,1.7-4.17,3.3-2.9,1.67-2.82,1.71-5.64,3.42-.39.24-.24,1.2.12,1.48Z"/><path class="cls-3" d="M44.39,19.97c-.98,1.19-7.11-1.19-7.93-1.51-3.59-1.4-6.61-3.21-6.45-3.45.14-.2,2.24,1.25,6.11,1.91,4.04.69,3.96.75,7.93,1.51.55.1.68,1.13.34,1.55Z"/></svg>