<svg width="49" height="48" viewBox="0 0 49 48" fill="none" xmlns="http://www.w3.org/2000/svg">
<path d="M32.0692 4.71313H15.9292C12.7755 4.71673 9.75203 5.9324 7.52221 8.09343C5.2924 10.2545 4.03833 13.1844 4.03516 16.2403L4.03516 31.8798C4.03886 34.9357 5.29344 37.8654 7.52363 40.026C9.75382 42.1867 12.7775 43.4019 15.9312 43.405H32.0712C35.2248 43.4014 38.2483 42.1857 40.4781 40.0247C42.7079 37.8636 43.962 34.9337 43.9652 31.8778V16.2383C43.9614 13.1824 42.7069 10.2527 40.4767 8.09206C38.2465 5.9314 35.2229 4.71621 32.0692 4.71313V4.71313ZM39.9492 31.8778C39.9492 32.8806 39.7453 33.8735 39.3493 34.7999C38.9533 35.7263 38.3729 36.568 37.6412 37.2771C36.9094 37.9861 36.0407 38.5485 35.0847 38.9323C34.1287 39.316 33.104 39.5135 32.0692 39.5135H15.9292C13.8396 39.513 11.8358 38.7083 10.3584 37.2764C8.88109 35.8445 8.05116 33.9026 8.05116 31.8778V16.2383C8.05169 14.2136 8.88213 12.2719 10.3599 10.8403C11.8376 9.4088 13.8416 8.6046 15.9312 8.6046H32.0712C34.1607 8.60512 36.1645 9.40981 37.6419 10.8417C39.1192 12.2736 39.9492 14.2155 39.9492 16.2403V31.8798V31.8778Z" fill="#FD8C8A"/>
<path d="M23.9998 14.0522C21.2626 14.0563 18.6388 15.1119 16.7036 16.9875C14.7683 18.8631 13.6795 21.4058 13.6758 24.0581C13.679 26.711 14.7678 29.2544 16.7036 31.1305C18.6393 33.0066 21.2639 34.0622 24.0018 34.0658C26.74 34.0627 29.3651 33.0073 31.3013 31.1312C33.2375 29.255 34.3266 26.7113 34.3298 24.0581C34.3255 21.4051 33.2357 18.8621 31.2992 16.9867C29.3626 15.1114 26.7376 14.0567 23.9998 14.0542V14.0522ZM23.9998 30.1743C22.3263 30.1743 20.7213 29.5301 19.5379 28.3835C18.3546 27.2368 17.6898 25.6816 17.6898 24.06C17.6898 22.4384 18.3546 20.8832 19.5379 19.7365C20.7213 18.5898 22.3263 17.9457 23.9998 17.9457C25.6733 17.9457 27.2783 18.5898 28.4616 19.7365C29.645 20.8832 30.3098 22.4384 30.3098 24.06C30.3098 25.6816 29.645 27.2368 28.4616 28.3835C27.2783 29.5301 25.6733 30.1743 23.9998 30.1743Z" fill="#FD8C8A"/>
<path d="M34.349 16.5252C35.7154 16.5252 36.823 15.4519 36.823 14.1279C36.823 12.8039 35.7154 11.7306 34.349 11.7306C32.9826 11.7306 31.875 12.8039 31.875 14.1279C31.875 15.4519 32.9826 16.5252 34.349 16.5252Z" fill="#FD8C8A"/>
</svg>
