<svg width="41" height="39" viewBox="0 0 41 39" fill="none" xmlns="http://www.w3.org/2000/svg">
<path d="M40.5196 23.926V38.4962H31.9636V24.9015C31.9636 21.4855 30.7256 19.1555 27.6296 19.1555C25.2656 19.1555 23.8576 20.7273 23.2396 22.2457C23.0136 22.7887 22.9556 23.5449 22.9556 24.3051V38.4962H14.3956C14.3956 38.4962 14.5116 15.473 14.3956 13.0858H22.9556V16.6873L22.8996 16.7703H22.9556V16.6873C24.0916 14.9596 26.1216 12.4895 30.6676 12.4895C36.2976 12.4895 40.5196 16.1226 40.5196 23.926ZM5.44356 0.837646C2.51756 0.837646 0.601562 2.73321 0.601562 5.22707C0.601562 7.66563 2.46156 9.61846 5.33156 9.61846H5.38756C8.37356 9.61846 10.2276 7.66563 10.2276 5.22707C10.1756 2.73321 8.37556 0.837646 5.44556 0.837646H5.44356ZM1.10956 38.4962H9.66556V13.0858H1.10956V38.4962Z" fill="#FD8C8A"/>
</svg>
