<svg width="174" height="146" viewBox="0 0 174 146" fill="none" xmlns="http://www.w3.org/2000/svg">
<g clip-path="url(#clip0_305_1129)">
<path d="M87.0322 142.647C125.294 142.647 156.311 111.616 156.311 73.3369C156.311 35.0581 125.294 4.02698 87.0322 4.02698C48.7703 4.02698 17.7529 35.0581 17.7529 73.3369C17.7529 111.616 48.7703 142.647 87.0322 142.647Z" fill="black" stroke="black" stroke-width="3" stroke-miterlimit="10"/>
<path d="M87.0964 107.767C105.864 107.767 121.078 92.5462 121.078 73.7701C121.078 54.994 105.864 39.7729 87.0964 39.7729C68.3286 39.7729 53.1143 54.994 53.1143 73.7701C53.1143 92.5462 68.3286 107.767 87.0964 107.767Z" fill="#E55E5B" stroke="black" stroke-width="2" stroke-miterlimit="10"/>
<path d="M168.211 73.0087L14.3367 37.2136C10.4719 36.3145 6.61036 38.7201 5.71171 42.5866L0.510613 64.9646C-0.388043 68.8311 2.01649 72.6943 5.88128 73.5934L159.755 109.389C163.62 110.288 167.482 107.882 168.38 104.015L173.582 81.6375C174.48 77.771 172.076 73.9078 168.211 73.0087Z" fill="#279D50"/>
<path d="M90.8009 62.0098L91.4264 69.0531C91.4745 69.5504 91.8273 69.9676 92.3244 70.0799L99.2523 71.6843C100.343 71.941 100.471 73.4491 99.4288 73.8823L92.9017 76.6098C92.4367 76.8023 92.148 77.2836 92.1961 77.781L92.8216 84.7922C92.9178 85.9153 91.5386 86.5089 90.8009 85.6586L86.1182 80.2999C85.7974 79.9309 85.2682 79.8025 84.8031 79.9951L78.228 82.7386C77.2017 83.1718 76.2074 82.0326 76.7847 81.07L80.4411 75.0535C80.6977 74.6203 80.6496 74.0748 80.3288 73.6898L75.6782 68.3632C74.9405 67.5129 75.7102 66.2133 76.8168 66.47L83.7447 68.0744C84.2258 68.1867 84.739 67.9781 84.9956 67.5449L88.668 61.4964C89.2453 60.5337 90.7047 60.8867 90.817 61.9937L90.8009 62.0098Z" fill="#9EBA9F"/>
<path d="M24.5363 46.6077L25.1617 53.651C25.2098 54.1483 25.5626 54.5655 26.0598 54.6778L32.9877 56.2822C34.0782 56.5389 34.2065 58.047 33.1641 58.4802L26.6371 61.2077C26.172 61.4002 25.8834 61.8815 25.9315 62.3789L26.5569 69.3901C26.6531 70.5132 25.274 71.1068 24.5363 70.2565L19.8535 64.8978C19.5328 64.5288 19.0036 64.4004 18.5385 64.593L11.9634 67.3365C10.937 67.7697 9.94272 66.6305 10.52 65.6679L14.1765 59.6514C14.433 59.2182 14.3849 58.6727 14.0642 58.2877L9.4135 52.9611C8.67581 52.1108 9.44558 50.8112 10.5521 51.0679L17.48 52.6723C17.9612 52.7846 18.4743 52.576 18.7309 52.1429L22.4034 46.0943C22.9807 45.1316 24.44 45.4846 24.5523 46.5916L24.5363 46.6077Z" fill="#9EBA9F"/>
<path d="M156.039 77.1875L156.664 84.2308C156.712 84.7282 157.065 85.1453 157.562 85.2576L164.49 86.862C165.581 87.1187 165.709 88.6269 164.667 89.06L158.14 91.7875C157.674 91.98 157.386 92.4614 157.434 92.9587L158.059 99.9699C158.156 101.093 156.776 101.687 156.039 100.836L151.356 95.4776C151.035 95.1086 150.506 94.9803 150.041 95.1728L143.466 97.9163C142.439 98.3495 141.445 97.2104 142.022 96.2477L145.679 90.2313C145.935 89.7981 145.887 89.2526 145.567 88.8675L140.916 83.5409C140.178 82.6906 140.948 81.391 142.055 81.6477L148.982 83.2521C149.464 83.3644 149.977 83.1559 150.233 82.7227L153.906 76.6741C154.483 75.7115 155.942 76.0644 156.055 77.1715L156.039 77.1875Z" fill="#9EBA9F"/>
<path d="M58.1178 54.405L58.7433 61.4483C58.7914 61.9457 59.1442 62.3629 59.6413 62.4752L66.5692 64.0796C67.6597 64.3363 67.788 65.8444 66.7456 66.2776L60.2186 69.005C59.7536 69.1976 59.4649 69.6789 59.513 70.1763L60.1385 77.1875C60.2347 78.3105 58.8555 78.9042 58.1178 78.0538L53.435 72.6952C53.1143 72.3262 52.5851 72.1978 52.12 72.3903L45.5449 75.1338C44.5185 75.567 43.5243 74.4279 44.1016 73.4653L47.758 67.4488C48.0146 67.0156 47.9665 66.4701 47.6457 66.085L42.995 60.7585C42.2574 59.9081 43.0271 58.6086 44.1337 58.8653L51.0616 60.4697C51.5427 60.582 52.0559 60.3734 52.3125 59.9402L55.9849 53.8916C56.5622 52.929 58.0216 53.282 58.1338 54.389L58.1178 54.405Z" fill="#9EBA9F"/>
<path d="M123.869 69.6948L124.494 76.7381C124.542 77.2355 124.895 77.6527 125.392 77.765L132.32 79.3694C133.411 79.6261 133.539 81.1342 132.497 81.5674L125.97 84.2948C125.505 84.4874 125.216 84.9687 125.264 85.4661L125.889 92.4773C125.986 93.6003 124.606 94.194 123.869 93.3436L119.186 87.985C118.865 87.6159 118.336 87.4876 117.871 87.6801L111.296 90.4236C110.27 90.8568 109.275 89.7177 109.853 88.7551L113.509 82.7386C113.766 82.3054 113.717 81.7599 113.397 81.3748L108.746 76.0483C108.008 75.1979 108.778 73.8984 109.885 74.1551L116.813 75.7595C117.294 75.8718 117.807 75.6632 118.063 75.23L121.736 69.1814C122.313 68.2188 123.773 68.5718 123.885 69.6788L123.869 69.6948Z" fill="#9EBA9F"/>
</g>
<defs>
<clipPath id="clip0_305_1129">
<rect width="174" height="146" fill="white"/>
</clipPath>
</defs>
</svg>
