<svg width="174" height="146" viewBox="0 0 174 146" fill="none" xmlns="http://www.w3.org/2000/svg">
<g clip-path="url(#clip0_623_1004)">
<path d="M87.0322 142.647C125.294 142.647 156.311 111.616 156.311 73.3367C156.311 35.058 125.294 4.02686 87.0322 4.02686C48.7703 4.02686 17.7529 35.058 17.7529 73.3367C17.7529 111.616 48.7703 142.647 87.0322 142.647Z" fill="black" stroke="black" stroke-width="3" stroke-miterlimit="10"/>
<path d="M87.0964 107.767C105.864 107.767 121.078 92.5462 121.078 73.7701C121.078 54.994 105.864 39.7729 87.0964 39.7729C68.3286 39.7729 53.1143 54.994 53.1143 73.7701C53.1143 92.5462 68.3286 107.767 87.0964 107.767Z" fill="white" stroke="black" stroke-width="2" stroke-miterlimit="10"/>
<path d="M168.211 73.0085L14.3367 37.2133C10.4719 36.3143 6.61036 38.7199 5.71171 42.5864L0.510612 64.9643C-0.388043 68.8308 2.01649 72.6941 5.88128 73.5931L159.755 109.388C163.62 110.287 167.482 107.882 168.38 104.015L173.582 81.6373C174.48 77.7708 172.076 73.9075 168.211 73.0085Z" fill="#279D50"/>
<path d="M90.8004 62.01L91.4259 69.0533C91.474 69.5507 91.8268 69.9678 92.3239 70.0801L99.2519 71.6845C100.342 71.9412 100.471 73.4494 99.4283 73.8826L92.9013 76.61C92.4362 76.8026 92.1475 77.2839 92.1956 77.7812L92.8211 84.7924C92.9173 85.9155 91.5381 86.5091 90.8004 85.6588L86.1177 80.3001C85.7969 79.9311 85.2677 79.8028 84.8026 79.9953L78.2275 82.7388C77.2012 83.172 76.2069 82.0329 76.7842 81.0702L80.4406 75.0538C80.6972 74.6206 80.6491 74.0751 80.3284 73.69L75.6777 68.3634C74.94 67.5131 75.7097 66.2135 76.8163 66.4703L83.7442 68.0746C84.2253 68.187 84.7385 67.9784 84.9951 67.5452L88.6675 61.4966C89.2449 60.534 90.7042 60.887 90.8165 61.994L90.8004 62.01Z" fill="#DAE400"/>
<path d="M24.5368 46.6077L25.1622 53.651C25.2103 54.1483 25.5631 54.5655 26.0603 54.6778L32.9882 56.2822C34.0787 56.5389 34.207 58.047 33.1646 58.4802L26.6376 61.2077C26.1725 61.4002 25.8839 61.8815 25.932 62.3789L26.5574 69.3901C26.6536 70.5132 25.2745 71.1068 24.5368 70.2565L19.854 64.8978C19.5333 64.5288 19.004 64.4004 18.539 64.593L11.9639 67.3365C10.9375 67.7697 9.94321 66.6305 10.5205 65.6679L14.1769 59.6514C14.4335 59.2182 14.3854 58.6727 14.0647 58.2877L9.41399 52.9611C8.6763 52.1108 9.44607 50.8112 10.5526 51.0679L17.4805 52.6723C17.9616 52.7846 18.4748 52.576 18.7314 52.1429L22.4039 46.0943C22.9812 45.1316 24.4405 45.4846 24.5528 46.5916L24.5368 46.6077Z" fill="#DAE400"/>
<path d="M156.039 77.1873L156.664 84.2306C156.712 84.7279 157.065 85.1451 157.562 85.2574L164.49 86.8618C165.581 87.1185 165.709 88.6266 164.667 89.0598L158.14 91.7873C157.674 91.9798 157.386 92.4611 157.434 92.9585L158.059 99.9697C158.156 101.093 156.776 101.686 156.039 100.836L151.356 95.4774C151.035 95.1084 150.506 94.98 150.041 95.1726L143.466 97.9161C142.439 98.3493 141.445 97.2101 142.022 96.2475L145.679 90.231C145.935 89.7978 145.887 89.2523 145.567 88.8673L140.916 83.5407C140.178 82.6904 140.948 81.3908 142.055 81.6475L148.982 83.2519C149.464 83.3642 149.977 83.1556 150.233 82.7224L153.906 76.6739C154.483 75.7112 155.942 76.0642 156.055 77.1712L156.039 77.1873Z" fill="#DAE400"/>
<path d="M58.1178 54.405L58.7433 61.4483C58.7914 61.9457 59.1442 62.3629 59.6413 62.4752L66.5692 64.0796C67.6597 64.3363 67.788 65.8444 66.7456 66.2776L60.2186 69.005C59.7536 69.1976 59.4649 69.6789 59.513 70.1763L60.1385 77.1875C60.2347 78.3105 58.8555 78.9042 58.1178 78.0538L53.435 72.6952C53.1143 72.3262 52.5851 72.1978 52.12 72.3903L45.5449 75.1338C44.5185 75.567 43.5243 74.4279 44.1016 73.4653L47.758 67.4488C48.0146 67.0156 47.9665 66.4701 47.6457 66.085L42.995 60.7585C42.2574 59.9081 43.0271 58.6086 44.1337 58.8653L51.0616 60.4697C51.5427 60.582 52.0559 60.3734 52.3125 59.9402L55.9849 53.8916C56.5622 52.929 58.0216 53.282 58.1338 54.389L58.1178 54.405Z" fill="#DAE400"/>
<path d="M123.869 69.6951L124.494 76.7384C124.542 77.2358 124.895 77.6529 125.392 77.7652L132.32 79.3696C133.411 79.6263 133.539 81.1344 132.497 81.5676L125.97 84.2951C125.505 84.4876 125.216 84.9689 125.264 85.4663L125.889 92.4775C125.986 93.6006 124.606 94.1942 123.869 93.3439L119.186 87.9852C118.865 87.6162 118.336 87.4878 117.871 87.6804L111.296 90.4239C110.27 90.8571 109.275 89.7179 109.853 88.7553L113.509 82.7388C113.766 82.3056 113.717 81.7601 113.397 81.3751L108.746 76.0485C108.008 75.1982 108.778 73.8986 109.885 74.1553L116.813 75.7597C117.294 75.872 117.807 75.6634 118.063 75.2303L121.736 69.1817C122.313 68.219 123.773 68.572 123.885 69.679L123.869 69.6951Z" fill="#DAE400"/>
</g>
<defs>
<clipPath id="clip0_623_1004">
<rect width="174" height="146" fill="white"/>
</clipPath>
</defs>
</svg>
