<svg width="173" height="134" viewBox="0 0 173 134" fill="none" xmlns="http://www.w3.org/2000/svg">
<g clip-path="url(#clip0_305_1099)">
<path d="M99.1909 125.84C145.318 112.547 177.132 82.2667 170.25 58.2081C163.368 34.1494 120.396 25.4225 74.2685 38.7161C28.1414 52.0096 -3.67287 82.2895 3.20927 106.348C10.0914 130.407 53.0639 139.134 99.1909 125.84Z" fill="black"/>
<path d="M121.906 39.5022C129.805 37.3138 142.508 43.0227 142.508 43.0227C147.089 45.0842 157.611 49.8099 156.9 52.5375C156.695 53.3463 155.558 53.8061 154.199 54.0757C152.714 54.377 151.165 54.044 149.87 53.267C145.525 50.7138 141.749 49.461 138.984 48.7633C136.377 48.1131 128.668 46.4797 122.285 43.5302C121.226 43.0386 119.251 42.0712 119.362 41.088C119.457 40.1841 121.258 39.6767 121.921 39.4864L121.906 39.5022Z" fill="#F2F2F2"/>
<path d="M139.727 55.9787C137.136 58.8807 129.379 56.058 129.379 56.058C126.582 55.0431 120.152 52.6961 119.394 50.3808C119.172 49.6989 119.488 49.1597 119.978 48.7474C120.515 48.3034 121.305 48.351 122.174 48.7792C125.066 50.2222 127.198 50.7138 128.668 50.8724C130.058 51.031 134.055 51.253 137.989 52.7436C138.637 52.9974 139.869 53.489 140.217 54.3136C140.533 55.0589 139.932 55.725 139.727 55.9628V55.9787Z" fill="#F2F2F2"/>
<path d="M60.6368 122.884C51.3154 125.262 32.4513 117.238 32.4513 117.238C27.127 114.701 16.3204 109.436 17.2209 106.264C17.4895 105.329 17.4105 104.25 19.0062 103.965C20.7599 103.664 23.509 104.536 25.1837 105.091C30.9504 107.01 34.0944 109.42 36.717 110.562C40.6194 112.259 48.3451 115.858 56.1815 117.127C57.5244 117.349 68.1572 118.475 66.2455 121.012C65.5977 121.869 61.3952 122.662 60.621 122.868L60.6368 122.884Z" fill="#F2F2F2"/>
<path d="M44.2219 106.566C49.009 111.513 63.4809 113.718 63.4809 113.718C67.6677 114.178 76.1992 115.034 76.8312 112.75C77.0208 112.084 77.4631 111.466 76.5942 110.689C75.6462 109.848 73.6398 109.341 72.4074 109.055C68.1891 108.056 65.3768 108.342 63.3545 108.056C60.3369 107.628 54.3017 106.915 49.0564 104.742C48.1558 104.361 41.2674 101.063 41.4886 103.315C41.5676 104.076 43.8269 106.138 44.2219 106.55V106.566Z" fill="#F2F2F2"/>
<path d="M90.4586 92.4945C106.519 87.8659 117.597 77.3237 115.201 68.9478C112.805 60.5718 97.8426 57.534 81.782 62.1626C65.7214 66.7911 54.644 77.3334 57.04 85.7093C59.436 94.0852 74.398 97.123 90.4586 92.4945Z" fill="#9EBA9F"/>
<path d="M85.4619 76.7523C86.7367 76.3849 87.6159 75.548 87.4257 74.883C87.2355 74.218 86.0478 73.9767 84.773 74.3441C83.4983 74.7115 82.6191 75.5484 82.8093 76.2134C82.9995 76.8784 84.1872 77.1197 85.4619 76.7523Z" fill="white"/>
<path d="M86.3893 9.35615C79.5325 13.6537 77.1627 15.3346 75.5196 17.523C74.3346 19.093 72.8495 21.4399 72.2492 24.5957C71.9016 26.5145 72.5177 28.4492 73.8765 30.59C75.6776 33.4444 78.4424 34.3008 79.8485 34.4118C85.789 34.8875 90.2127 30.9864 91.2555 30.0667C92.2034 29.2421 94.6365 26.9109 97.2433 20.2664C99.392 14.7796 101.383 5.05864 98.3493 3.37769C96.8325 2.53722 94.8103 4.0913 86.4051 9.35615H86.3893Z" fill="#279D50"/>
<path d="M50.5572 17.7768C58.8517 18.7442 61.822 19.2516 64.3024 20.5678C66.1035 21.5193 68.5366 23.0258 70.4799 25.7217C71.649 27.3551 71.9334 29.4483 71.6174 32.0332C71.1908 35.5061 68.9947 37.52 67.7308 38.2495C62.4065 41.3418 56.5451 39.6609 55.1705 39.2644C53.9224 38.8997 50.6362 37.8213 45.2645 32.7785C40.825 28.6078 34.6791 20.4251 36.7804 17.5072C37.8231 16.0483 40.3984 16.5875 50.573 17.7768H50.5572Z" fill="#279D50"/>
<path d="M74.7137 28.8615C76.341 30.146 82.7712 24.231 83.6243 23.4381C87.4003 19.9652 90.3232 16.1275 90.0388 15.8579C89.8018 15.6201 87.8269 18.5538 83.4505 21.0911C78.8688 23.7394 78.9952 23.8028 74.5399 26.5145C73.9237 26.8951 74.1607 28.4175 74.7295 28.8615H74.7137Z" fill="#138350"/>
<path d="M70.132 31.6684C68.5837 33.5555 58.8989 29.7813 57.6033 29.2738C51.9315 27.0537 47.1601 24.1834 47.4129 23.8028C47.6341 23.4857 50.9519 25.7851 57.0662 26.8317C63.449 27.9259 63.3226 28.0211 69.5948 29.2263C70.4638 29.3848 70.6692 31.0182 70.132 31.6842V31.6684Z" fill="#138350"/>
</g>
<defs>
<clipPath id="clip0_305_1099">
<rect width="173" height="134" fill="white"/>
</clipPath>
</defs>
</svg>
