<svg width="159" height="175" viewBox="0 0 159 175" fill="none" xmlns="http://www.w3.org/2000/svg">
<path d="M80.3377 124.821C114.122 124.821 141.509 97.3443 141.509 63.4495C141.509 29.5548 114.122 2.07764 80.3377 2.07764C46.5535 2.07764 19.166 29.5548 19.166 63.4495C19.166 97.3443 46.5535 124.821 80.3377 124.821Z" fill="#6EBADC"/>
<path d="M89.8182 22.2794C91.4055 20.9671 88.9363 20.2003 89.3037 19.3303C89.8916 17.9589 91.5231 18.0032 91.7289 15.865C91.8758 14.42 92.8165 12.7389 94.154 12.3998C95.2563 12.1196 96.4174 12.8127 97.3434 13.3583C97.4609 13.432 98.0048 13.8154 99.063 14.5674C100.694 15.7323 100.709 15.7471 100.783 15.7766C102.076 16.4549 102.517 16.0567 103.972 16.735C104.633 17.0447 105.221 17.3101 105.692 17.9442C106.265 18.6962 106.588 19.8906 106.206 20.8933C105.75 22.1025 104.428 22.5596 103.531 22.884C100.68 23.8867 102.061 23.1494 99.1218 23.6655C99.0777 23.6655 97.6373 23.931 96.4468 25.6562C95.3298 27.2635 95.3739 27.2635 95.2416 27.3815C93.7865 28.7971 91.1409 28.222 90.8323 28.163C90.5677 28.104 87.6135 27.4257 87.3783 25.73C87.1873 24.4028 88.7452 23.1347 89.8035 22.2647L89.8182 22.2794Z" fill="#279D50"/>
<path d="M40.4042 23.2968C39.4194 24.1962 34.5986 28.5462 35.6421 30.9646C36.7444 33.5008 42.8146 30.4337 48.5173 34.3413C51.4715 36.3615 51.6038 38.3817 55.2194 39.812C56.0866 40.1512 58.644 41.0212 61.6129 40.3576C62.3331 40.1954 64.5671 39.5908 65.9634 37.6296C66.3162 37.1283 66.9775 36.0371 67.1833 32.3064C67.4479 27.3813 72.7243 27.6173 73.3416 25.4496C74.1647 22.5742 69.7701 22.294 72.2099 18.5339C73.033 17.2657 76.0313 12.6208 74.2529 9.67167C73.0918 7.75472 70.2845 7.16489 68.2709 7.35658C65.6842 7.59252 66.2868 8.91963 59.7022 9.47997C57.6151 9.65692 56.3658 10.2173 55.5281 10.9103C54.4551 11.7951 54.4551 12.4291 53.1617 13.9479C52.2358 15.0391 51.3539 15.7174 50.0311 16.6612C44.7547 20.4508 42.844 21.1144 40.4042 23.3115V23.2968Z" fill="#279D50"/>
<path d="M131.236 32.9114C134.543 34.2238 135.778 38.0429 138.1 45.6223C139.687 50.8275 139.82 53.3933 139.849 56.0918C139.937 65.765 139.408 84.5363 132.324 64.1872C130.31 58.3773 127.003 60.1616 126.651 57.817C126.063 53.9241 121.653 56.9912 120.478 55.3397C119.008 53.2753 121.242 51.5353 118.008 49.1465C116.098 47.7309 117.229 44.2067 117.479 41.8474C117.7 39.7387 117.729 36.937 120.478 34.268C122.094 32.705 121.286 29.8148 122.947 29.3135C123.138 29.2545 128.811 31.9529 131.251 32.9262L131.236 32.9114Z" fill="#279D50"/>
<path d="M99.2241 30.9351C101.487 31.5692 102.281 31.5987 102.663 32.3212C103.09 33.1175 102.458 33.7073 102.987 34.6068C103.369 35.2704 104.207 35.757 105 35.7275C106.058 35.6685 106.088 34.6805 107.543 33.9727C108.969 33.2797 109.645 33.8843 110.659 33.0732C110.747 32.9995 111.732 32.1885 111.776 31.0531C111.82 29.8734 110.821 29.4605 109.454 27.6615C107.558 25.1548 107.807 23.7687 106.543 23.4148C105.691 23.1788 105.441 23.7687 103.428 24.3143C100.914 24.9926 100.37 24.3143 98.886 24.9483C96.7989 25.8478 95.241 28.3546 95.8142 29.5637C96.0347 30.0504 97.1076 30.3453 99.2535 30.9498L99.2241 30.9351Z" fill="#279D50"/>
<path d="M44.2701 46.4923C40.0959 46.4923 38.1999 44.2951 34.2757 45.3716C30.8511 46.3153 27.8234 47.1558 25.3983 49.8248C24.8397 50.4294 21.4593 57.1387 22.0619 62.0785C23.1789 70.985 27.6176 70.985 27.6176 79.9062C27.6176 86.5712 34.8783 88.6062 42.0507 94.3865C44.1378 96.0675 53.6913 103.765 55.3815 102.187C56.6014 101.037 51.9864 96.6131 50.9428 87.7067C50.5607 84.5216 50.1051 80.5697 52.0598 76.5736C53.8677 72.8724 55.8812 72.9167 57.6156 68.7731C58.2035 67.3723 59.6879 63.8038 58.7326 59.8667C57.7625 55.9148 57.4392 58.5101 57.6156 55.4134C57.7919 52.3463 58.0124 50.5916 56.4985 49.8395C52.0598 47.6129 50.0904 46.4923 44.2848 46.4923H44.2701Z" fill="#279D50"/>
<path d="M101.59 61.2231C97.416 58.9522 98.195 57.9938 94.4765 56.4012C92.7128 55.6492 87.9213 53.5995 83.2475 55.487C81.7777 56.0768 80.7636 56.8878 79.3232 58.0233C77.1038 59.778 75.5753 60.9724 75.3842 62.7861C75.1931 64.5556 76.3543 66.0007 77.0598 66.9002C79.235 69.6282 81.1604 68.9499 83.6737 71.3829C84.8495 72.5183 85.5844 74.1404 87.0395 77.3844C88.6562 80.9529 88.5533 81.6902 89.7144 84.4034C91.6398 88.8567 93.2125 92.4841 95.7846 92.9707C98.2832 93.4573 99.121 90.4934 105.529 86.2024C110.762 82.6929 112.569 83.0763 114.921 79.9355C115.685 78.918 118.096 75.6887 117.346 71.9285C116.758 68.9941 114.554 67.2394 113.128 66.1039C109.233 62.9926 107.102 64.246 101.59 61.2526V61.2231Z" fill="#279D50"/>
<path d="M78.7508 130.292C92.5664 130.292 103.766 119.056 103.766 105.195C103.766 91.3341 92.5664 80.0977 78.7508 80.0977C64.9351 80.0977 53.7354 91.3341 53.7354 105.195C53.7354 119.056 64.9351 130.292 78.7508 130.292Z" fill="black"/>
<path d="M29.013 123.48C38.5671 123.48 46.3122 115.709 46.3122 106.124C46.3122 96.5385 38.5671 88.7681 29.013 88.7681C19.459 88.7681 11.7139 96.5385 11.7139 106.124C11.7139 115.709 19.459 123.48 29.013 123.48Z" fill="black"/>
<path d="M127.87 123.48C137.425 123.48 145.17 115.709 145.17 106.124C145.17 96.5385 137.425 88.7681 127.87 88.7681C118.316 88.7681 110.571 96.5385 110.571 106.124C110.571 115.709 118.316 123.48 127.87 123.48Z" fill="black"/>
<path d="M12.1843 122.772C13.8893 121.769 15.9469 121.902 17.5196 123.14C19.7389 124.88 23.2958 126.989 27.9109 127.269C33.9957 127.638 38.3903 124.246 40.9918 122.639C43.2258 121.268 43.799 121.253 45.2835 121.666C45.7685 121.798 46.2242 121.961 46.6504 122.123C53.9404 125.116 57.2768 135.143 58.6584 141.174C59.2757 143.858 58.1293 146.645 55.9393 147.884C53.7494 149.122 50.898 150.538 47.6939 151.673C33.5401 156.702 21.2969 153.767 14.727 152.101C12.008 151.408 8.50992 150.346 4.46806 148.621C2.17523 147.648 0.793644 145.023 1.13169 142.28C1.6902 137.724 3.33634 130.941 8.12778 125.971C9.47997 124.571 10.8762 123.538 12.1696 122.772H12.1843Z" fill="black"/>
<path d="M111.13 122.639C112.835 121.637 114.892 121.769 116.465 123.008C118.684 124.748 122.241 126.857 126.856 127.137C132.941 127.505 137.336 124.114 139.937 122.507C142.171 121.135 142.744 121.121 144.229 121.533C144.714 121.666 145.169 121.828 145.596 121.991C152.886 124.984 156.222 135.011 157.604 141.042C158.221 143.726 157.075 146.513 154.885 147.751C152.695 148.99 149.843 150.406 146.639 151.541C132.485 156.569 120.242 153.635 113.672 151.969C110.953 151.276 107.455 150.214 103.413 148.489C101.121 147.515 99.739 144.891 100.077 142.148C100.636 137.592 102.282 130.809 107.073 125.839C108.425 124.438 109.822 123.406 111.115 122.639H111.13Z" fill="black"/>
<path d="M54.9554 126.901C57.4099 125.456 60.4082 125.647 62.6863 127.432C65.9051 129.953 71.0493 132.991 77.7368 133.404C86.5407 133.934 92.9048 129.024 96.6674 126.709C99.8861 124.718 100.724 124.704 102.87 125.293C103.575 125.485 104.237 125.706 104.854 125.957C115.392 130.292 120.228 144.802 122.227 153.532C123.123 157.41 121.462 161.45 118.302 163.249C115.142 165.048 111.012 167.083 106.368 168.734C85.8793 176.019 68.1539 171.772 58.6592 169.354C54.7202 168.351 49.6495 166.803 43.8145 164.325C40.5075 162.91 38.494 159.12 38.979 155.154C39.7874 148.547 42.1684 138.742 49.1057 131.546C51.0605 129.511 53.0741 128.021 54.9554 126.901Z" fill="black" stroke="white" stroke-miterlimit="10"/>
</svg>
