<svg width="173" height="190" viewBox="0 0 173 190" fill="none" xmlns="http://www.w3.org/2000/svg">
<path d="M87.4172 135.753C124.409 135.753 154.396 105.75 154.396 68.7382C154.396 31.7267 124.409 1.7229 87.4172 1.7229C50.4256 1.7229 20.438 31.7267 20.438 68.7382C20.438 105.75 50.4256 135.753 87.4172 135.753Z" fill="#6EBADC"/>
<path d="M97.7974 23.7822C99.5355 22.3492 96.8318 21.5119 97.2341 20.5619C97.8779 19.0644 99.6642 19.1127 99.8895 16.778C100.05 15.2 101.08 13.3644 102.545 12.9941C103.752 12.6881 105.023 13.4449 106.037 14.0407C106.166 14.1212 106.761 14.5398 107.92 15.361C109.706 16.6331 109.722 16.6492 109.803 16.6814C111.219 17.422 111.702 16.9873 113.295 17.728C114.019 18.0661 114.663 18.3559 115.178 19.0483C115.805 19.8695 116.16 21.1737 115.741 22.2687C115.242 23.589 113.794 24.0881 112.812 24.4424C109.69 25.5373 111.203 24.7322 107.984 25.2958C107.936 25.2958 106.359 25.5856 105.055 27.4695C103.832 29.2246 103.881 29.2246 103.736 29.3534C102.143 30.8992 99.2458 30.2712 98.9078 30.2068C98.6181 30.1424 95.3835 29.4017 95.126 27.55C94.9168 26.1009 96.6226 24.7161 97.7813 23.7661L97.7974 23.7822Z" fill="#279D50"/>
<path d="M43.6925 24.8932C42.6142 25.8754 37.3357 30.6254 38.4783 33.2661C39.6853 36.0356 46.3317 32.6865 52.5758 36.9534C55.8105 39.1593 55.9554 41.3653 59.9142 42.9271C60.8637 43.2975 63.6639 44.2475 66.9147 43.5229C67.7033 43.3458 70.1494 42.6856 71.6782 40.5441C72.0645 39.9966 72.7887 38.8051 73.014 34.7314C73.3036 29.3534 79.081 29.611 79.7569 27.2441C80.6581 24.1043 75.8463 23.7983 78.5178 19.6924C79.419 18.3076 82.702 13.2356 80.7547 10.0153C79.4834 7.92205 76.4096 7.27798 74.2048 7.4873C71.3725 7.74493 72.0323 9.19408 64.8226 9.80595C62.5374 9.99917 61.1695 10.611 60.2522 11.3678C59.0774 12.3339 59.0774 13.0263 57.6612 14.6848C56.6474 15.8763 55.6818 16.617 54.2334 17.6475C48.456 21.7856 46.3639 22.5102 43.6925 24.9093V24.8932Z" fill="#279D50"/>
<path d="M143.147 35.3915C146.768 36.8246 148.12 40.9949 150.663 49.2712C152.401 54.9551 152.546 57.7568 152.578 60.7034C152.674 71.2661 152.095 91.7636 144.338 69.5432C142.133 63.1991 138.512 65.1474 138.126 62.5873C137.483 58.3364 132.655 61.6856 131.367 59.8822C129.758 57.628 132.204 55.728 128.664 53.1195C126.571 51.5737 127.811 47.7254 128.084 45.1492C128.326 42.8466 128.358 39.7873 131.367 36.8729C133.137 35.1661 132.252 32.0102 134.071 31.4627C134.28 31.3983 140.492 34.3449 143.163 35.4076L143.147 35.3915Z" fill="#279D50"/>
<path d="M108.097 33.234C110.575 33.9263 111.444 33.9585 111.863 34.7475C112.329 35.617 111.637 36.2611 112.217 37.2433C112.635 37.9679 113.552 38.4992 114.421 38.467C115.58 38.4026 115.612 37.3238 117.205 36.5509C118.766 35.7941 119.507 36.4543 120.617 35.5687C120.714 35.4882 121.792 34.6026 121.84 33.3628C121.888 32.0746 120.794 31.6238 119.297 29.6594C117.221 26.9221 117.495 25.4085 116.111 25.0221C115.178 24.7645 114.904 25.4085 112.699 26.0043C109.947 26.745 109.352 26.0043 107.727 26.6967C105.441 27.6789 103.736 30.4162 104.363 31.7365C104.605 32.2679 105.779 32.5899 108.129 33.2501L108.097 33.234Z" fill="#279D50"/>
<path d="M47.9248 50.2212C43.3544 50.2212 41.2784 47.8221 36.9815 48.9975C33.2319 50.028 29.9167 50.9458 27.2614 53.8602C26.6498 54.5204 22.9484 61.8467 23.6082 67.2407C24.8313 76.9662 29.6914 76.9662 29.6914 86.7077C29.6914 93.9856 37.6414 96.2077 45.4948 102.52C47.78 104.355 58.2404 112.76 60.0911 111.037C61.4268 109.781 56.3736 104.951 55.231 95.2255C54.8126 91.7475 54.3137 87.4323 56.4541 83.0687C58.4335 79.0272 60.6383 79.0755 62.5373 74.5509C63.181 73.0212 64.8064 69.1246 63.7603 64.8255C62.6982 60.5102 62.3441 63.3441 62.5373 59.9628C62.7304 56.6136 62.9718 54.6975 61.3142 53.8763C56.4541 51.445 54.2976 50.2212 47.9409 50.2212H47.9248Z" fill="#279D50"/>
<path d="M110.688 66.3067C106.118 63.8271 106.97 62.7805 102.899 61.0415C100.968 60.2203 95.7215 57.9822 90.6039 60.0432C88.9946 60.6873 87.8842 61.5728 86.307 62.8127C83.877 64.7288 82.2033 66.033 81.9941 68.0135C81.7849 69.9457 83.0563 71.5237 83.8287 72.5059C86.2105 75.4847 88.3187 74.744 91.0706 77.4008C92.358 78.6406 93.1627 80.4118 94.7559 83.9542C96.5261 87.8508 96.4135 88.6559 97.6848 91.6186C99.793 96.4813 101.515 100.442 104.331 100.974C107.067 101.505 107.984 98.2686 115.001 93.583C120.73 89.7508 122.709 90.1695 125.284 86.7398C126.121 85.6288 128.76 82.1025 127.94 77.9966C127.296 74.7923 124.882 72.8762 123.321 71.6364C119.056 68.239 116.723 69.6076 110.688 66.3389V66.3067Z" fill="#279D50"/>
<path d="M85.6794 141.727C100.807 141.727 113.07 129.457 113.07 114.322C113.07 99.1867 100.807 86.917 85.6794 86.917C70.5521 86.917 58.2891 99.1867 58.2891 114.322C58.2891 129.457 70.5521 141.727 85.6794 141.727Z" fill="black"/>
<path d="M31.2203 134.288C41.6814 134.288 50.1618 125.803 50.1618 115.336C50.1618 104.87 41.6814 96.3848 31.2203 96.3848C20.7592 96.3848 12.2788 104.87 12.2788 115.336C12.2788 125.803 20.7592 134.288 31.2203 134.288Z" fill="black"/>
<path d="M139.462 134.288C149.923 134.288 158.403 125.803 158.403 115.336C158.403 104.87 149.923 96.3848 139.462 96.3848C129.001 96.3848 120.521 104.87 120.521 115.336C120.521 125.803 129.001 134.288 139.462 134.288Z" fill="black"/>
<path d="M12.7941 133.515C14.6609 132.42 16.9139 132.565 18.6359 133.918C21.0659 135.818 24.9604 138.12 30.0136 138.426C36.6762 138.829 41.488 135.125 44.3364 133.37C46.7826 131.873 47.4102 131.857 49.0356 132.308C49.5667 132.453 50.0656 132.63 50.5323 132.807C58.5144 136.075 62.1675 147.025 63.6803 153.61C64.3562 156.541 63.1009 159.584 60.703 160.936C58.3052 162.289 55.1831 163.835 51.6749 165.075C36.1773 170.565 22.7718 167.361 15.5782 165.542C12.601 164.785 8.77086 163.625 4.34528 161.742C1.83477 160.679 0.322022 157.813 0.692162 154.818C1.3037 149.842 3.10612 142.436 8.35244 137.009C9.833 135.48 11.3618 134.353 12.778 133.515H12.7941Z" fill="black"/>
<path d="M121.132 133.37C122.999 132.275 125.252 132.42 126.974 133.773C129.404 135.673 133.298 137.975 138.352 138.281C145.014 138.684 149.826 134.981 152.674 133.225C155.12 131.728 155.748 131.712 157.373 132.163C157.905 132.308 158.403 132.485 158.87 132.662C166.852 135.931 170.505 146.88 172.018 153.465C172.694 156.396 171.439 159.439 169.041 160.792C166.643 162.144 163.521 163.69 160.013 164.93C144.515 170.42 131.11 167.216 123.916 165.397C120.939 164.64 117.109 163.481 112.683 161.597C110.173 160.534 108.66 157.668 109.03 154.673C109.642 149.697 111.444 142.291 116.69 136.864C118.171 135.335 119.7 134.208 121.116 133.37H121.132Z" fill="black"/>
<path d="M59.6244 138.024C62.312 136.446 65.5949 136.655 68.0894 138.603C71.6137 141.357 77.2463 144.674 84.5686 145.125C94.2083 145.704 101.177 140.342 105.296 137.814C108.821 135.641 109.738 135.625 112.088 136.269C112.86 136.478 113.584 136.719 114.26 136.993C125.799 141.727 131.094 157.571 133.282 167.103C134.264 171.338 132.445 175.75 128.985 177.714C125.525 179.679 121.003 181.901 115.918 183.704C93.4841 191.658 74.076 187.021 63.6799 184.381C59.3669 183.286 53.8148 181.595 47.4259 178.89C43.805 177.344 41.6002 173.206 42.1313 168.875C43.0164 161.661 45.6235 150.953 53.2194 143.096C55.3598 140.874 57.5645 139.247 59.6244 138.024Z" fill="black" stroke="#E55E5B" stroke-miterlimit="10"/>
</svg>
