<svg width="41" height="36" viewBox="0 0 41 36" fill="none" xmlns="http://www.w3.org/2000/svg">
<path d="M40.5234 4.71575C39.0242 5.42951 37.4363 5.89752 35.8114 6.10456C37.517 5.01277 38.7995 3.28139 39.4194 1.23393C37.8034 2.25935 36.0409 2.9816 34.2054 3.37055C33.4325 2.48801 32.5028 1.78637 31.473 1.30844C30.4431 0.830516 29.3347 0.586322 28.2154 0.590758C23.6834 0.590758 20.0094 4.53697 20.0094 9.39889C20.0094 10.0878 20.0814 10.7615 20.2214 11.4047C16.9706 11.2362 13.7877 10.3307 10.8758 8.74621C7.96388 7.16169 5.38696 4.93286 3.30944 2.20195C2.58109 3.54148 2.19827 5.07065 2.20144 6.62781C2.20283 8.08413 2.53709 9.51712 3.17402 10.7973C3.81094 12.0774 4.73045 13.1644 5.84944 13.9599C4.54841 13.9141 3.27548 13.5355 2.13344 12.8546V12.9636C2.13344 17.2325 4.96344 20.7928 8.71344 21.6038C8.00866 21.8077 7.2826 21.911 6.55344 21.9112C6.02344 21.9112 5.50944 21.8567 5.00744 21.7477C5.54361 23.5092 6.56965 25.0449 7.94307 26.1416C9.3165 27.2383 10.9691 27.8416 12.6714 27.8676C9.75157 30.3194 6.16708 31.6439 2.48144 31.6329C1.81744 31.6329 1.16544 31.5893 0.523438 31.5108C4.28595 34.1068 8.64862 35.4816 13.1014 35.4744C28.1954 35.4744 36.4474 22.0508 36.4474 10.4105L36.4194 9.27025C38.0292 8.03552 39.4197 6.49231 40.5234 4.71575Z" fill="#FD8C8A"/>
</svg>
