<svg width="41" height="29" viewBox="0 0 41 29" fill="none" xmlns="http://www.w3.org/2000/svg">
<path d="M32.0224 0.74343H8.68844C4.10844 0.74343 0.398438 4.36673 0.398438 8.8371V20.2263C0.398438 24.6967 4.11044 28.3219 8.68844 28.3219H32.0224C36.6024 28.3219 40.3124 24.6967 40.3124 20.2263V8.8371C40.3124 4.36673 36.6004 0.741455 32.0224 0.741455V0.74343ZM26.4164 15.0846L15.5024 20.169C15.4359 20.2007 15.3623 20.2152 15.2885 20.2112C15.2147 20.2072 15.1432 20.1849 15.0805 20.1462C15.0178 20.1076 14.9661 20.054 14.93 19.9903C14.894 19.9266 14.8749 19.855 14.8744 19.782V9.29915C14.8758 9.22584 14.8959 9.15406 14.9329 9.09049C14.9699 9.02692 15.0226 8.97363 15.0861 8.93559C15.1496 8.89755 15.2218 8.87599 15.296 8.87292C15.3702 8.86986 15.444 8.88539 15.5104 8.91806L26.4264 14.3184C26.4991 14.3542 26.5601 14.4096 26.6024 14.478C26.6448 14.5465 26.6666 14.6254 26.6656 14.7056C26.6645 14.7858 26.6406 14.8641 26.5965 14.9315C26.5525 14.9989 26.49 15.0526 26.4164 15.0865V15.0846Z" fill="#FD8C8A"/>
</svg>
